<svg xmlns="http://www.w3.org/2000/svg" xmlns:xlink="http://www.w3.org/1999/xlink" id="user-nav">
  <symbol viewBox="0 0 18 15" id="cart-icon">
    <path d="M17.726 3.663h.001l-2.475 5.5a.824.824 0 0 1-.697.485l-7.128.475.412 1.176H15.6a1.65 1.65 0 1 1-1.65 1.65h-7.7A1.65 1.65 0 1 1 4.6 11.3h1.49L2.916 2.225h-1.89a.825.825 0 0 1 0-1.65H3.5c.36 0 .663.232.776.553h.003l.48 1.372h12.216a.825.825 0 0 1 .751 1.163zm-12.39.487l1.526 4.357 7.089-.473 1.748-3.884z"/>
  </symbol>
  <symbol viewBox="0 0 18 18" id="magn-glass-icon">
    <path d="M17.8 16.15a1.65 1.65 0 0 1-2.817 1.166l-4.836-4.835c-.982.58-2.124.919-3.347.919a6.6 6.6 0 1 1 6.6-6.6 6.558 6.558 0 0 1-.919 3.347l4.836 4.836c.298.298.483.71.483 1.167zm-11-14.3a4.95 4.95 0 1 0 0 9.9 4.95 4.95 0 0 0 0-9.9z"/>
  </symbol>
</svg>